# xmcd
#
# Track frame offsets:
#	150
#	8422
#	24917
#	46032
#	59287
#	75775
#	95310
#	111162
#	130865
#	145660
#	155117
#	172307
#	180250
#	196962
#	210985
#	219180
#	236252
#
# Disc length: 3309 seconds
#
# Revision: 0
# Processed by: cddbd v1.4PL0 Copyright (c) Steve Scherf et al.
# Submitted via: EasyCDDAExtractor 4.6.9.1
#
DISCID=c60ceb11
DTITLE=Various Artist - At Bean Blossom - Uncle Pen Days
DYEAR=2000
DGENRE=Bluegrass
TTITLE0=Ralph Stanley and The Clinch Mountain Boys - Mountain Folk
TTITLE1=J.D. Crowe and The New South - Your Love Is Like A Flower
TTITLE2=J.D. Crowe and The New South - Train 45
TTITLE3=Charlie Waller - Matterhorn
TTITLE4=Gary Brewer and The Kentucky Ramblers - I'll Never Love Again
TTITLE5=Leroy Troy - I Wish I Were Single Again
TTITLE6=IIIrd Tyme Out - He Reached Out His Hands For Me
TTITLE7=Larry Sparks - Blue Virginia Blue
TTITLE8=Jimmy Martin - Grand Ole Opry Song
TTITLE9=Ralph and Jimmy coversing
TTITLE10=Ralph Stanley And Jimmy Martin - I Only Exist
TTITLE11=Jimmy and Ralph conversing
TTITLE12=Ralph Stanley And Jimmy Martin - Rabbit In The Log
TTITLE13=County Line - I Cried Again
TTITLE14=Michael Cleveland - rey Eagle
TTITLE15=Mountain Heart - Roses
TTITLE16=Ernie Thacker and Rt. 23 - Sharecroppers Son
EXTD=
EXTT0=
EXTT1=
EXTT2=
EXTT3=
EXTT4=
EXTT5=
EXTT6=
EXTT7=
EXTT8=
EXTT9=
EXTT10=
EXTT11=
EXTT12=
EXTT13=
EXTT14=
EXTT15=
EXTT16=
PLAYORDER=
